%TF.GenerationSoftware,KiCad,Pcbnew,10.0.1*%
%TF.CreationDate,2026-10-05T21:02:51+02:00*%
%TF.ProjectId,MKC - Kicad,4d4b4320-2d20-44b6-9963-61642e6b6963,rev?*%
%TF.SameCoordinates,Original*%
%TF.FileFunction,Copper,L1,Top*%
%TF.FilePolarity,Positive*%
%FSLAX46Y46*%
G04 Gerber Fmt 4.6, Leading zero omitted, Abs format (unit mm)*
G04 Created by KiCad (PCBNEW 10.0.1) date 2026-10-05 21:02:51*
%MOMM*%
%LPD*%
G01*
G04 APERTURE LIST*
%TA.AperFunction,NonConductor*%
%ADD10C,0.200000*%
%TD*%
%TA.AperFunction,ComponentPad*%
%ADD11R,1.500000X1.500000*%
%TD*%
%TA.AperFunction,ComponentPad*%
%ADD12C,1.600000*%
%TD*%
%TA.AperFunction,ComponentPad*%
%ADD13C,2.000000*%
%TD*%
%TA.AperFunction,ComponentPad*%
%ADD14R,2.000000X2.000000*%
%TD*%
%TA.AperFunction,ComponentPad*%
%ADD15C,1.348000*%
%TD*%
%TA.AperFunction,ViaPad*%
%ADD16C,1.500000*%
%TD*%
%TA.AperFunction,Conductor*%
%ADD17C,0.200000*%
%TD*%
G04 APERTURE END LIST*
D10*
X86000000Y-101000000D02*
X144000000Y-101000000D01*
X86000000Y-87000000D02*
X86000000Y-101000000D01*
X144000000Y-101000000D02*
X144000000Y-106000000D01*
X44000000Y-87000000D02*
X86000000Y-87000000D01*
X49550000Y-92000000D02*
G75*
G02*
X46450000Y-92000000I-1550000J0D01*
G01*
X46450000Y-92000000D02*
G75*
G02*
X49550000Y-92000000I1550000J0D01*
G01*
X141550000Y-120000000D02*
G75*
G02*
X138450000Y-120000000I-1550000J0D01*
G01*
X138450000Y-120000000D02*
G75*
G02*
X141550000Y-120000000I1550000J0D01*
G01*
X49550000Y-120000000D02*
G75*
G02*
X46450000Y-120000000I-1550000J0D01*
G01*
X46450000Y-120000000D02*
G75*
G02*
X49550000Y-120000000I1550000J0D01*
G01*
X144000000Y-101000000D02*
X144000000Y-133000000D01*
X44000000Y-133000000D02*
X44000000Y-87000000D01*
X44000000Y-133000000D02*
X144000000Y-133000000D01*
D11*
%TO.P,REF\u002A\u002A,1*%
%TO.N,N/C*%
X79000000Y-96000000D03*
D12*
%TO.P,REF\u002A\u002A,2*%
X76460000Y-96000000D03*
%TO.P,REF\u002A\u002A,3*%
X81540000Y-96000000D03*
%TD*%
D13*
%TO.P,REF\u002A\u002A,2*%
%TO.N,N/C*%
X114000000Y-109250000D03*
X107500000Y-109250000D03*
%TO.P,REF\u002A\u002A,1*%
X114000000Y-104750000D03*
X107500000Y-104750000D03*
%TD*%
%TO.P,REF\u002A\u002A,2*%
%TO.N,N/C*%
X56500000Y-130500000D03*
X50000000Y-130500000D03*
%TO.P,REF\u002A\u002A,1*%
X56500000Y-126000000D03*
X50000000Y-126000000D03*
%TD*%
D14*
%TO.P,REF\u002A\u002A,1*%
%TO.N,N/C*%
X132629216Y-107000000D03*
D13*
%TO.P,REF\u002A\u002A,2*%
X137629216Y-107000000D03*
%TD*%
%TO.P,REF\u002A\u002A,1*%
%TO.N,N/C*%
X119000000Y-126000000D03*
X125500000Y-126000000D03*
%TO.P,REF\u002A\u002A,2*%
X119000000Y-130500000D03*
X125500000Y-130500000D03*
%TD*%
%TO.P,REF\u002A\u002A,1*%
%TO.N,N/C*%
X130500000Y-126000000D03*
X137000000Y-126000000D03*
%TO.P,REF\u002A\u002A,2*%
X130500000Y-130500000D03*
X137000000Y-130500000D03*
%TD*%
%TO.P,REF\u002A\u002A,1*%
%TO.N,N/C*%
X107500000Y-126000000D03*
X114000000Y-126000000D03*
%TO.P,REF\u002A\u002A,2*%
X107500000Y-130500000D03*
X114000000Y-130500000D03*
%TD*%
%TO.P,REF\u002A\u002A,1*%
%TO.N,N/C*%
X96000000Y-126000000D03*
X102500000Y-126000000D03*
%TO.P,REF\u002A\u002A,2*%
X96000000Y-130500000D03*
X102500000Y-130500000D03*
%TD*%
%TO.P,REF\u002A\u002A,1*%
%TO.N,N/C*%
X84500000Y-126000000D03*
X91000000Y-126000000D03*
%TO.P,REF\u002A\u002A,2*%
X84500000Y-130500000D03*
X91000000Y-130500000D03*
%TD*%
%TO.P,REF\u002A\u002A,1*%
%TO.N,N/C*%
X73000000Y-126000000D03*
X79500000Y-126000000D03*
%TO.P,REF\u002A\u002A,2*%
X73000000Y-130500000D03*
X79500000Y-130500000D03*
%TD*%
%TO.P,REF\u002A\u002A,1*%
%TO.N,N/C*%
X61500000Y-126000000D03*
X68000000Y-126000000D03*
%TO.P,REF\u002A\u002A,2*%
X61500000Y-130500000D03*
X68000000Y-130500000D03*
%TD*%
D15*
%TO.P,REF\u002A\u002A,5*%
%TO.N,N/C*%
X52380000Y-92100000D03*
%TO.P,REF\u002A\u002A,6*%
X52380000Y-94640000D03*
%TO.P,REF\u002A\u002A,7*%
X52380000Y-97180000D03*
%TO.P,REF\u002A\u002A,8*%
X52380000Y-99720000D03*
%TO.P,REF\u002A\u002A,9*%
X52380000Y-102260000D03*
%TO.P,REF\u002A\u002A,10*%
X52380000Y-104800000D03*
%TO.P,REF\u002A\u002A,20*%
X52380000Y-107340000D03*
%TO.P,REF\u002A\u002A,21*%
X52380000Y-109880000D03*
%TO.P,REF\u002A\u002A,0*%
X67620000Y-109880000D03*
%TO.P,REF\u002A\u002A,1*%
X67620000Y-107340000D03*
%TO.P,REF\u002A\u002A,2*%
X67620000Y-104800000D03*
%TO.P,REF\u002A\u002A,3*%
X67620000Y-102260000D03*
%TO.P,REF\u002A\u002A,4*%
X67620000Y-99720000D03*
%TO.P,REF\u002A\u002A,3.3*%
X67620000Y-97180000D03*
%TO.P,REF\u002A\u002A,G*%
X67620000Y-94640000D03*
%TO.P,REF\u002A\u002A,5V*%
X67620000Y-92100000D03*
%TD*%
D13*
%TO.P,REF\u002A\u002A,1*%
%TO.N,N/C*%
X74000000Y-104750000D03*
X80500000Y-104750000D03*
%TO.P,REF\u002A\u002A,2*%
X74000000Y-109250000D03*
X80500000Y-109250000D03*
%TD*%
D16*
%TO.N,*%
X82000000Y-93000000D03*
X74000000Y-93000000D03*
%TD*%
%TO.N,*%
D17*
X85000000Y-93000000D02*
X82000000Y-90000000D01*
X85000000Y-102000000D02*
X85000000Y-93000000D01*
X131000000Y-102000000D02*
X85000000Y-102000000D01*
X54480000Y-90000000D02*
X54000000Y-90480000D01*
X136000000Y-107000000D02*
X131000000Y-102000000D01*
X137629216Y-107000000D02*
X136000000Y-107000000D01*
X82000000Y-90000000D02*
X54480000Y-90000000D01*
X132629216Y-107000000D02*
X122000000Y-107000000D01*
X122000000Y-107000000D02*
X118000000Y-103000000D01*
X114000000Y-103000000D02*
X80000000Y-103000000D01*
X114000000Y-104750000D02*
X114000000Y-103000000D01*
X80000000Y-101000000D02*
X73000000Y-101000000D01*
X139000000Y-124000000D02*
X122000000Y-107000000D01*
X139000000Y-132000000D02*
X139000000Y-124000000D01*
X132000000Y-132000000D02*
X139000000Y-132000000D01*
X80000000Y-104250000D02*
X80000000Y-103000000D01*
X118000000Y-103000000D02*
X114000000Y-103000000D01*
X49000000Y-98020000D02*
X52380000Y-94640000D01*
X49000000Y-113000000D02*
X49000000Y-98020000D01*
X56500000Y-120500000D02*
X49000000Y-113000000D01*
X56500000Y-126000000D02*
X56500000Y-120500000D01*
X79000000Y-96000000D02*
X82000000Y-93000000D01*
X75460000Y-97000000D02*
X73000000Y-97000000D01*
X76460000Y-96000000D02*
X75460000Y-97000000D01*
X73000000Y-97000000D02*
X73000000Y-101000000D01*
X72750000Y-109250000D02*
X74000000Y-109250000D01*
X70000000Y-106500000D02*
X72750000Y-109250000D01*
X80000000Y-103000000D02*
X80000000Y-101000000D01*
X80500000Y-104750000D02*
X80000000Y-104250000D01*
X70000000Y-111000000D02*
X105750000Y-111000000D01*
X105750000Y-111000000D02*
X107500000Y-109250000D01*
X52380000Y-92100000D02*
X54000000Y-90480000D01*
X54000000Y-90480000D02*
X54000000Y-90000000D01*
X63000000Y-132000000D02*
X51500000Y-132000000D01*
X51500000Y-132000000D02*
X50000000Y-130500000D01*
X63000000Y-132000000D02*
X61500000Y-130500000D01*
X74500000Y-132000000D02*
X63000000Y-132000000D01*
X74500000Y-132000000D02*
X73000000Y-130500000D01*
X86000000Y-132000000D02*
X74500000Y-132000000D01*
X86000000Y-132000000D02*
X84500000Y-130500000D01*
X97500000Y-132000000D02*
X86000000Y-132000000D01*
X109000000Y-132000000D02*
X97500000Y-132000000D01*
X97500000Y-132000000D02*
X96000000Y-130500000D01*
X109000000Y-132000000D02*
X107500000Y-130500000D01*
X120500000Y-132000000D02*
X109000000Y-132000000D01*
X120500000Y-132000000D02*
X119000000Y-130500000D01*
X132000000Y-132000000D02*
X120500000Y-132000000D01*
X132000000Y-132000000D02*
X130500000Y-130500000D01*
X68520000Y-93000000D02*
X67620000Y-92100000D01*
X74000000Y-93000000D02*
X68520000Y-93000000D01*
X102000000Y-121000000D02*
X73480000Y-121000000D01*
X73480000Y-121000000D02*
X54740000Y-102260000D01*
X107000000Y-126000000D02*
X102000000Y-121000000D01*
X107500000Y-126000000D02*
X107000000Y-126000000D01*
X76740000Y-119000000D02*
X67620000Y-109880000D01*
X130500000Y-125500000D02*
X124000000Y-119000000D01*
X124000000Y-119000000D02*
X76740000Y-119000000D01*
X130500000Y-126000000D02*
X130500000Y-125500000D01*
X53720000Y-99720000D02*
X52380000Y-99720000D01*
X74000000Y-120000000D02*
X53720000Y-99720000D01*
X113000000Y-120000000D02*
X74000000Y-120000000D01*
X119000000Y-126000000D02*
X113000000Y-120000000D01*
X54740000Y-102260000D02*
X52380000Y-102260000D01*
X55800000Y-104800000D02*
X52380000Y-104800000D01*
X73000000Y-122000000D02*
X55800000Y-104800000D01*
X92000000Y-122000000D02*
X73000000Y-122000000D01*
X96000000Y-126000000D02*
X92000000Y-122000000D01*
X56340000Y-107340000D02*
X52380000Y-107340000D01*
X72000000Y-123000000D02*
X56340000Y-107340000D01*
X82000000Y-123000000D02*
X72000000Y-123000000D01*
X84500000Y-125500000D02*
X82000000Y-123000000D01*
X84500000Y-126000000D02*
X84500000Y-125500000D01*
X56880000Y-109880000D02*
X52380000Y-109880000D01*
X73000000Y-126000000D02*
X56880000Y-109880000D01*
X61500000Y-123500000D02*
X51000000Y-113000000D01*
X51000000Y-113000000D02*
X51000000Y-98560000D01*
X51000000Y-98560000D02*
X52380000Y-97180000D01*
X61500000Y-126000000D02*
X61500000Y-123500000D01*
X69000000Y-103640000D02*
X67620000Y-102260000D01*
X70000000Y-111000000D02*
X69000000Y-110000000D01*
X69000000Y-110000000D02*
X69000000Y-103640000D01*
X67900000Y-100000000D02*
X67620000Y-99720000D01*
X70000000Y-106500000D02*
X70000000Y-100000000D01*
X70000000Y-100000000D02*
X67900000Y-100000000D01*
X73000000Y-95000000D02*
X73000000Y-97000000D01*
X67980000Y-95000000D02*
X73000000Y-95000000D01*
X67620000Y-94640000D02*
X67980000Y-95000000D01*
X95500000Y-131000000D02*
X96000000Y-130500000D01*
%TD*%
M02*
