%TF.GenerationSoftware,KiCad,Pcbnew,10.0.1*%
%TF.CreationDate,2026-10-05T21:02:51+02:00*%
%TF.ProjectId,MKC - Kicad,4d4b4320-2d20-44b6-9963-61642e6b6963,rev?*%
%TF.SameCoordinates,Original*%
%TF.FileFunction,Copper,L2,Bot*%
%TF.FilePolarity,Positive*%
%FSLAX46Y46*%
G04 Gerber Fmt 4.6, Leading zero omitted, Abs format (unit mm)*
G04 Created by KiCad (PCBNEW 10.0.1) date 2026-10-05 21:02:51*
%MOMM*%
%LPD*%
G01*
G04 APERTURE LIST*
%TA.AperFunction,ComponentPad*%
%ADD10R,1.500000X1.500000*%
%TD*%
%TA.AperFunction,ComponentPad*%
%ADD11C,1.600000*%
%TD*%
%TA.AperFunction,ComponentPad*%
%ADD12C,2.000000*%
%TD*%
%TA.AperFunction,ComponentPad*%
%ADD13R,2.000000X2.000000*%
%TD*%
%TA.AperFunction,ComponentPad*%
%ADD14C,1.348000*%
%TD*%
%TA.AperFunction,ViaPad*%
%ADD15C,1.500000*%
%TD*%
G04 APERTURE END LIST*
D10*
%TO.P,REF\u002A\u002A,1*%
%TO.N,N/C*%
X79000000Y-96000000D03*
D11*
%TO.P,REF\u002A\u002A,2*%
X76460000Y-96000000D03*
%TO.P,REF\u002A\u002A,3*%
X81540000Y-96000000D03*
%TD*%
D12*
%TO.P,REF\u002A\u002A,2*%
%TO.N,N/C*%
X114000000Y-109250000D03*
X107500000Y-109250000D03*
%TO.P,REF\u002A\u002A,1*%
X114000000Y-104750000D03*
X107500000Y-104750000D03*
%TD*%
%TO.P,REF\u002A\u002A,2*%
%TO.N,N/C*%
X56500000Y-130500000D03*
X50000000Y-130500000D03*
%TO.P,REF\u002A\u002A,1*%
X56500000Y-126000000D03*
X50000000Y-126000000D03*
%TD*%
D13*
%TO.P,REF\u002A\u002A,1*%
%TO.N,N/C*%
X132629216Y-107000000D03*
D12*
%TO.P,REF\u002A\u002A,2*%
X137629216Y-107000000D03*
%TD*%
%TO.P,REF\u002A\u002A,1*%
%TO.N,N/C*%
X119000000Y-126000000D03*
X125500000Y-126000000D03*
%TO.P,REF\u002A\u002A,2*%
X119000000Y-130500000D03*
X125500000Y-130500000D03*
%TD*%
%TO.P,REF\u002A\u002A,1*%
%TO.N,N/C*%
X130500000Y-126000000D03*
X137000000Y-126000000D03*
%TO.P,REF\u002A\u002A,2*%
X130500000Y-130500000D03*
X137000000Y-130500000D03*
%TD*%
%TO.P,REF\u002A\u002A,1*%
%TO.N,N/C*%
X107500000Y-126000000D03*
X114000000Y-126000000D03*
%TO.P,REF\u002A\u002A,2*%
X107500000Y-130500000D03*
X114000000Y-130500000D03*
%TD*%
%TO.P,REF\u002A\u002A,1*%
%TO.N,N/C*%
X96000000Y-126000000D03*
X102500000Y-126000000D03*
%TO.P,REF\u002A\u002A,2*%
X96000000Y-130500000D03*
X102500000Y-130500000D03*
%TD*%
%TO.P,REF\u002A\u002A,1*%
%TO.N,N/C*%
X84500000Y-126000000D03*
X91000000Y-126000000D03*
%TO.P,REF\u002A\u002A,2*%
X84500000Y-130500000D03*
X91000000Y-130500000D03*
%TD*%
%TO.P,REF\u002A\u002A,1*%
%TO.N,N/C*%
X73000000Y-126000000D03*
X79500000Y-126000000D03*
%TO.P,REF\u002A\u002A,2*%
X73000000Y-130500000D03*
X79500000Y-130500000D03*
%TD*%
%TO.P,REF\u002A\u002A,1*%
%TO.N,N/C*%
X61500000Y-126000000D03*
X68000000Y-126000000D03*
%TO.P,REF\u002A\u002A,2*%
X61500000Y-130500000D03*
X68000000Y-130500000D03*
%TD*%
D14*
%TO.P,REF\u002A\u002A,5*%
%TO.N,N/C*%
X52380000Y-92100000D03*
%TO.P,REF\u002A\u002A,6*%
X52380000Y-94640000D03*
%TO.P,REF\u002A\u002A,7*%
X52380000Y-97180000D03*
%TO.P,REF\u002A\u002A,8*%
X52380000Y-99720000D03*
%TO.P,REF\u002A\u002A,9*%
X52380000Y-102260000D03*
%TO.P,REF\u002A\u002A,10*%
X52380000Y-104800000D03*
%TO.P,REF\u002A\u002A,20*%
X52380000Y-107340000D03*
%TO.P,REF\u002A\u002A,21*%
X52380000Y-109880000D03*
%TO.P,REF\u002A\u002A,0*%
X67620000Y-109880000D03*
%TO.P,REF\u002A\u002A,1*%
X67620000Y-107340000D03*
%TO.P,REF\u002A\u002A,2*%
X67620000Y-104800000D03*
%TO.P,REF\u002A\u002A,3*%
X67620000Y-102260000D03*
%TO.P,REF\u002A\u002A,4*%
X67620000Y-99720000D03*
%TO.P,REF\u002A\u002A,3.3*%
X67620000Y-97180000D03*
%TO.P,REF\u002A\u002A,G*%
X67620000Y-94640000D03*
%TO.P,REF\u002A\u002A,5V*%
X67620000Y-92100000D03*
%TD*%
D12*
%TO.P,REF\u002A\u002A,1*%
%TO.N,N/C*%
X74000000Y-104750000D03*
X80500000Y-104750000D03*
%TO.P,REF\u002A\u002A,2*%
X74000000Y-109250000D03*
X80500000Y-109250000D03*
%TD*%
D15*
%TO.N,*%
X82000000Y-93000000D03*
X74000000Y-93000000D03*
%TD*%
M02*
