%TF.GenerationSoftware,KiCad,Pcbnew,10.0.1*%
%TF.CreationDate,2026-10-05T21:02:51+02:00*%
%TF.ProjectId,MKC - Kicad,4d4b4320-2d20-44b6-9963-61642e6b6963,rev?*%
%TF.SameCoordinates,Original*%
%TF.FileFunction,Legend,Top*%
%TF.FilePolarity,Positive*%
%FSLAX46Y46*%
G04 Gerber Fmt 4.6, Leading zero omitted, Abs format (unit mm)*
G04 Created by KiCad (PCBNEW 10.0.1) date 2026-10-05 21:02:51*
%MOMM*%
%LPD*%
G01*
G04 APERTURE LIST*
%ADD10C,0.150000*%
%ADD11C,0.120000*%
%ADD12C,0.127000*%
G04 APERTURE END LIST*
D10*
X77666666Y-93914819D02*
X77333333Y-93438628D01*
X77095238Y-93914819D02*
X77095238Y-92914819D01*
X77095238Y-92914819D02*
X77476190Y-92914819D01*
X77476190Y-92914819D02*
X77571428Y-92962438D01*
X77571428Y-92962438D02*
X77619047Y-93010057D01*
X77619047Y-93010057D02*
X77666666Y-93105295D01*
X77666666Y-93105295D02*
X77666666Y-93248152D01*
X77666666Y-93248152D02*
X77619047Y-93343390D01*
X77619047Y-93343390D02*
X77571428Y-93391009D01*
X77571428Y-93391009D02*
X77476190Y-93438628D01*
X77476190Y-93438628D02*
X77095238Y-93438628D01*
X78095238Y-93391009D02*
X78428571Y-93391009D01*
X78571428Y-93914819D02*
X78095238Y-93914819D01*
X78095238Y-93914819D02*
X78095238Y-92914819D01*
X78095238Y-92914819D02*
X78571428Y-92914819D01*
X79333333Y-93391009D02*
X79000000Y-93391009D01*
X79000000Y-93914819D02*
X79000000Y-92914819D01*
X79000000Y-92914819D02*
X79476190Y-92914819D01*
X80000000Y-92914819D02*
X80000000Y-93152914D01*
X79761905Y-93057676D02*
X80000000Y-93152914D01*
X80000000Y-93152914D02*
X80238095Y-93057676D01*
X79857143Y-93343390D02*
X80000000Y-93152914D01*
X80000000Y-93152914D02*
X80142857Y-93343390D01*
X80761905Y-92914819D02*
X80761905Y-93152914D01*
X80523810Y-93057676D02*
X80761905Y-93152914D01*
X80761905Y-93152914D02*
X81000000Y-93057676D01*
X80619048Y-93343390D02*
X80761905Y-93152914D01*
X80761905Y-93152914D02*
X80904762Y-93343390D01*
X109416666Y-103204819D02*
X109083333Y-102728628D01*
X108845238Y-103204819D02*
X108845238Y-102204819D01*
X108845238Y-102204819D02*
X109226190Y-102204819D01*
X109226190Y-102204819D02*
X109321428Y-102252438D01*
X109321428Y-102252438D02*
X109369047Y-102300057D01*
X109369047Y-102300057D02*
X109416666Y-102395295D01*
X109416666Y-102395295D02*
X109416666Y-102538152D01*
X109416666Y-102538152D02*
X109369047Y-102633390D01*
X109369047Y-102633390D02*
X109321428Y-102681009D01*
X109321428Y-102681009D02*
X109226190Y-102728628D01*
X109226190Y-102728628D02*
X108845238Y-102728628D01*
X109845238Y-102681009D02*
X110178571Y-102681009D01*
X110321428Y-103204819D02*
X109845238Y-103204819D01*
X109845238Y-103204819D02*
X109845238Y-102204819D01*
X109845238Y-102204819D02*
X110321428Y-102204819D01*
X111083333Y-102681009D02*
X110750000Y-102681009D01*
X110750000Y-103204819D02*
X110750000Y-102204819D01*
X110750000Y-102204819D02*
X111226190Y-102204819D01*
X111750000Y-102204819D02*
X111750000Y-102442914D01*
X111511905Y-102347676D02*
X111750000Y-102442914D01*
X111750000Y-102442914D02*
X111988095Y-102347676D01*
X111607143Y-102633390D02*
X111750000Y-102442914D01*
X111750000Y-102442914D02*
X111892857Y-102633390D01*
X112511905Y-102204819D02*
X112511905Y-102442914D01*
X112273810Y-102347676D02*
X112511905Y-102442914D01*
X112511905Y-102442914D02*
X112750000Y-102347676D01*
X112369048Y-102633390D02*
X112511905Y-102442914D01*
X112511905Y-102442914D02*
X112654762Y-102633390D01*
X138666666Y-116304819D02*
X138333333Y-115828628D01*
X138095238Y-116304819D02*
X138095238Y-115304819D01*
X138095238Y-115304819D02*
X138476190Y-115304819D01*
X138476190Y-115304819D02*
X138571428Y-115352438D01*
X138571428Y-115352438D02*
X138619047Y-115400057D01*
X138619047Y-115400057D02*
X138666666Y-115495295D01*
X138666666Y-115495295D02*
X138666666Y-115638152D01*
X138666666Y-115638152D02*
X138619047Y-115733390D01*
X138619047Y-115733390D02*
X138571428Y-115781009D01*
X138571428Y-115781009D02*
X138476190Y-115828628D01*
X138476190Y-115828628D02*
X138095238Y-115828628D01*
X139095238Y-115781009D02*
X139428571Y-115781009D01*
X139571428Y-116304819D02*
X139095238Y-116304819D01*
X139095238Y-116304819D02*
X139095238Y-115304819D01*
X139095238Y-115304819D02*
X139571428Y-115304819D01*
X140333333Y-115781009D02*
X140000000Y-115781009D01*
X140000000Y-116304819D02*
X140000000Y-115304819D01*
X140000000Y-115304819D02*
X140476190Y-115304819D01*
X141000000Y-115304819D02*
X141000000Y-115542914D01*
X140761905Y-115447676D02*
X141000000Y-115542914D01*
X141000000Y-115542914D02*
X141238095Y-115447676D01*
X140857143Y-115733390D02*
X141000000Y-115542914D01*
X141000000Y-115542914D02*
X141142857Y-115733390D01*
X141761905Y-115304819D02*
X141761905Y-115542914D01*
X141523810Y-115447676D02*
X141761905Y-115542914D01*
X141761905Y-115542914D02*
X142000000Y-115447676D01*
X141619048Y-115733390D02*
X141761905Y-115542914D01*
X141761905Y-115542914D02*
X141904762Y-115733390D01*
X46666666Y-88304819D02*
X46333333Y-87828628D01*
X46095238Y-88304819D02*
X46095238Y-87304819D01*
X46095238Y-87304819D02*
X46476190Y-87304819D01*
X46476190Y-87304819D02*
X46571428Y-87352438D01*
X46571428Y-87352438D02*
X46619047Y-87400057D01*
X46619047Y-87400057D02*
X46666666Y-87495295D01*
X46666666Y-87495295D02*
X46666666Y-87638152D01*
X46666666Y-87638152D02*
X46619047Y-87733390D01*
X46619047Y-87733390D02*
X46571428Y-87781009D01*
X46571428Y-87781009D02*
X46476190Y-87828628D01*
X46476190Y-87828628D02*
X46095238Y-87828628D01*
X47095238Y-87781009D02*
X47428571Y-87781009D01*
X47571428Y-88304819D02*
X47095238Y-88304819D01*
X47095238Y-88304819D02*
X47095238Y-87304819D01*
X47095238Y-87304819D02*
X47571428Y-87304819D01*
X48333333Y-87781009D02*
X48000000Y-87781009D01*
X48000000Y-88304819D02*
X48000000Y-87304819D01*
X48000000Y-87304819D02*
X48476190Y-87304819D01*
X49000000Y-87304819D02*
X49000000Y-87542914D01*
X48761905Y-87447676D02*
X49000000Y-87542914D01*
X49000000Y-87542914D02*
X49238095Y-87447676D01*
X48857143Y-87733390D02*
X49000000Y-87542914D01*
X49000000Y-87542914D02*
X49142857Y-87733390D01*
X49761905Y-87304819D02*
X49761905Y-87542914D01*
X49523810Y-87447676D02*
X49761905Y-87542914D01*
X49761905Y-87542914D02*
X50000000Y-87447676D01*
X49619048Y-87733390D02*
X49761905Y-87542914D01*
X49761905Y-87542914D02*
X49904762Y-87733390D01*
X51916666Y-124454819D02*
X51583333Y-123978628D01*
X51345238Y-124454819D02*
X51345238Y-123454819D01*
X51345238Y-123454819D02*
X51726190Y-123454819D01*
X51726190Y-123454819D02*
X51821428Y-123502438D01*
X51821428Y-123502438D02*
X51869047Y-123550057D01*
X51869047Y-123550057D02*
X51916666Y-123645295D01*
X51916666Y-123645295D02*
X51916666Y-123788152D01*
X51916666Y-123788152D02*
X51869047Y-123883390D01*
X51869047Y-123883390D02*
X51821428Y-123931009D01*
X51821428Y-123931009D02*
X51726190Y-123978628D01*
X51726190Y-123978628D02*
X51345238Y-123978628D01*
X52345238Y-123931009D02*
X52678571Y-123931009D01*
X52821428Y-124454819D02*
X52345238Y-124454819D01*
X52345238Y-124454819D02*
X52345238Y-123454819D01*
X52345238Y-123454819D02*
X52821428Y-123454819D01*
X53583333Y-123931009D02*
X53250000Y-123931009D01*
X53250000Y-124454819D02*
X53250000Y-123454819D01*
X53250000Y-123454819D02*
X53726190Y-123454819D01*
X54250000Y-123454819D02*
X54250000Y-123692914D01*
X54011905Y-123597676D02*
X54250000Y-123692914D01*
X54250000Y-123692914D02*
X54488095Y-123597676D01*
X54107143Y-123883390D02*
X54250000Y-123692914D01*
X54250000Y-123692914D02*
X54392857Y-123883390D01*
X55011905Y-123454819D02*
X55011905Y-123692914D01*
X54773810Y-123597676D02*
X55011905Y-123692914D01*
X55011905Y-123692914D02*
X55250000Y-123597676D01*
X54869048Y-123883390D02*
X55011905Y-123692914D01*
X55011905Y-123692914D02*
X55154762Y-123883390D01*
X133795882Y-100284819D02*
X133462549Y-99808628D01*
X133224454Y-100284819D02*
X133224454Y-99284819D01*
X133224454Y-99284819D02*
X133605406Y-99284819D01*
X133605406Y-99284819D02*
X133700644Y-99332438D01*
X133700644Y-99332438D02*
X133748263Y-99380057D01*
X133748263Y-99380057D02*
X133795882Y-99475295D01*
X133795882Y-99475295D02*
X133795882Y-99618152D01*
X133795882Y-99618152D02*
X133748263Y-99713390D01*
X133748263Y-99713390D02*
X133700644Y-99761009D01*
X133700644Y-99761009D02*
X133605406Y-99808628D01*
X133605406Y-99808628D02*
X133224454Y-99808628D01*
X134224454Y-99761009D02*
X134557787Y-99761009D01*
X134700644Y-100284819D02*
X134224454Y-100284819D01*
X134224454Y-100284819D02*
X134224454Y-99284819D01*
X134224454Y-99284819D02*
X134700644Y-99284819D01*
X135462549Y-99761009D02*
X135129216Y-99761009D01*
X135129216Y-100284819D02*
X135129216Y-99284819D01*
X135129216Y-99284819D02*
X135605406Y-99284819D01*
X136129216Y-99284819D02*
X136129216Y-99522914D01*
X135891121Y-99427676D02*
X136129216Y-99522914D01*
X136129216Y-99522914D02*
X136367311Y-99427676D01*
X135986359Y-99713390D02*
X136129216Y-99522914D01*
X136129216Y-99522914D02*
X136272073Y-99713390D01*
X136891121Y-99284819D02*
X136891121Y-99522914D01*
X136653026Y-99427676D02*
X136891121Y-99522914D01*
X136891121Y-99522914D02*
X137129216Y-99427676D01*
X136748264Y-99713390D02*
X136891121Y-99522914D01*
X136891121Y-99522914D02*
X137033978Y-99713390D01*
X120916666Y-124454819D02*
X120583333Y-123978628D01*
X120345238Y-124454819D02*
X120345238Y-123454819D01*
X120345238Y-123454819D02*
X120726190Y-123454819D01*
X120726190Y-123454819D02*
X120821428Y-123502438D01*
X120821428Y-123502438D02*
X120869047Y-123550057D01*
X120869047Y-123550057D02*
X120916666Y-123645295D01*
X120916666Y-123645295D02*
X120916666Y-123788152D01*
X120916666Y-123788152D02*
X120869047Y-123883390D01*
X120869047Y-123883390D02*
X120821428Y-123931009D01*
X120821428Y-123931009D02*
X120726190Y-123978628D01*
X120726190Y-123978628D02*
X120345238Y-123978628D01*
X121345238Y-123931009D02*
X121678571Y-123931009D01*
X121821428Y-124454819D02*
X121345238Y-124454819D01*
X121345238Y-124454819D02*
X121345238Y-123454819D01*
X121345238Y-123454819D02*
X121821428Y-123454819D01*
X122583333Y-123931009D02*
X122250000Y-123931009D01*
X122250000Y-124454819D02*
X122250000Y-123454819D01*
X122250000Y-123454819D02*
X122726190Y-123454819D01*
X123250000Y-123454819D02*
X123250000Y-123692914D01*
X123011905Y-123597676D02*
X123250000Y-123692914D01*
X123250000Y-123692914D02*
X123488095Y-123597676D01*
X123107143Y-123883390D02*
X123250000Y-123692914D01*
X123250000Y-123692914D02*
X123392857Y-123883390D01*
X124011905Y-123454819D02*
X124011905Y-123692914D01*
X123773810Y-123597676D02*
X124011905Y-123692914D01*
X124011905Y-123692914D02*
X124250000Y-123597676D01*
X123869048Y-123883390D02*
X124011905Y-123692914D01*
X124011905Y-123692914D02*
X124154762Y-123883390D01*
X132416666Y-124454819D02*
X132083333Y-123978628D01*
X131845238Y-124454819D02*
X131845238Y-123454819D01*
X131845238Y-123454819D02*
X132226190Y-123454819D01*
X132226190Y-123454819D02*
X132321428Y-123502438D01*
X132321428Y-123502438D02*
X132369047Y-123550057D01*
X132369047Y-123550057D02*
X132416666Y-123645295D01*
X132416666Y-123645295D02*
X132416666Y-123788152D01*
X132416666Y-123788152D02*
X132369047Y-123883390D01*
X132369047Y-123883390D02*
X132321428Y-123931009D01*
X132321428Y-123931009D02*
X132226190Y-123978628D01*
X132226190Y-123978628D02*
X131845238Y-123978628D01*
X132845238Y-123931009D02*
X133178571Y-123931009D01*
X133321428Y-124454819D02*
X132845238Y-124454819D01*
X132845238Y-124454819D02*
X132845238Y-123454819D01*
X132845238Y-123454819D02*
X133321428Y-123454819D01*
X134083333Y-123931009D02*
X133750000Y-123931009D01*
X133750000Y-124454819D02*
X133750000Y-123454819D01*
X133750000Y-123454819D02*
X134226190Y-123454819D01*
X134750000Y-123454819D02*
X134750000Y-123692914D01*
X134511905Y-123597676D02*
X134750000Y-123692914D01*
X134750000Y-123692914D02*
X134988095Y-123597676D01*
X134607143Y-123883390D02*
X134750000Y-123692914D01*
X134750000Y-123692914D02*
X134892857Y-123883390D01*
X135511905Y-123454819D02*
X135511905Y-123692914D01*
X135273810Y-123597676D02*
X135511905Y-123692914D01*
X135511905Y-123692914D02*
X135750000Y-123597676D01*
X135369048Y-123883390D02*
X135511905Y-123692914D01*
X135511905Y-123692914D02*
X135654762Y-123883390D01*
X109416666Y-124454819D02*
X109083333Y-123978628D01*
X108845238Y-124454819D02*
X108845238Y-123454819D01*
X108845238Y-123454819D02*
X109226190Y-123454819D01*
X109226190Y-123454819D02*
X109321428Y-123502438D01*
X109321428Y-123502438D02*
X109369047Y-123550057D01*
X109369047Y-123550057D02*
X109416666Y-123645295D01*
X109416666Y-123645295D02*
X109416666Y-123788152D01*
X109416666Y-123788152D02*
X109369047Y-123883390D01*
X109369047Y-123883390D02*
X109321428Y-123931009D01*
X109321428Y-123931009D02*
X109226190Y-123978628D01*
X109226190Y-123978628D02*
X108845238Y-123978628D01*
X109845238Y-123931009D02*
X110178571Y-123931009D01*
X110321428Y-124454819D02*
X109845238Y-124454819D01*
X109845238Y-124454819D02*
X109845238Y-123454819D01*
X109845238Y-123454819D02*
X110321428Y-123454819D01*
X111083333Y-123931009D02*
X110750000Y-123931009D01*
X110750000Y-124454819D02*
X110750000Y-123454819D01*
X110750000Y-123454819D02*
X111226190Y-123454819D01*
X111750000Y-123454819D02*
X111750000Y-123692914D01*
X111511905Y-123597676D02*
X111750000Y-123692914D01*
X111750000Y-123692914D02*
X111988095Y-123597676D01*
X111607143Y-123883390D02*
X111750000Y-123692914D01*
X111750000Y-123692914D02*
X111892857Y-123883390D01*
X112511905Y-123454819D02*
X112511905Y-123692914D01*
X112273810Y-123597676D02*
X112511905Y-123692914D01*
X112511905Y-123692914D02*
X112750000Y-123597676D01*
X112369048Y-123883390D02*
X112511905Y-123692914D01*
X112511905Y-123692914D02*
X112654762Y-123883390D01*
X97916666Y-124454819D02*
X97583333Y-123978628D01*
X97345238Y-124454819D02*
X97345238Y-123454819D01*
X97345238Y-123454819D02*
X97726190Y-123454819D01*
X97726190Y-123454819D02*
X97821428Y-123502438D01*
X97821428Y-123502438D02*
X97869047Y-123550057D01*
X97869047Y-123550057D02*
X97916666Y-123645295D01*
X97916666Y-123645295D02*
X97916666Y-123788152D01*
X97916666Y-123788152D02*
X97869047Y-123883390D01*
X97869047Y-123883390D02*
X97821428Y-123931009D01*
X97821428Y-123931009D02*
X97726190Y-123978628D01*
X97726190Y-123978628D02*
X97345238Y-123978628D01*
X98345238Y-123931009D02*
X98678571Y-123931009D01*
X98821428Y-124454819D02*
X98345238Y-124454819D01*
X98345238Y-124454819D02*
X98345238Y-123454819D01*
X98345238Y-123454819D02*
X98821428Y-123454819D01*
X99583333Y-123931009D02*
X99250000Y-123931009D01*
X99250000Y-124454819D02*
X99250000Y-123454819D01*
X99250000Y-123454819D02*
X99726190Y-123454819D01*
X100250000Y-123454819D02*
X100250000Y-123692914D01*
X100011905Y-123597676D02*
X100250000Y-123692914D01*
X100250000Y-123692914D02*
X100488095Y-123597676D01*
X100107143Y-123883390D02*
X100250000Y-123692914D01*
X100250000Y-123692914D02*
X100392857Y-123883390D01*
X101011905Y-123454819D02*
X101011905Y-123692914D01*
X100773810Y-123597676D02*
X101011905Y-123692914D01*
X101011905Y-123692914D02*
X101250000Y-123597676D01*
X100869048Y-123883390D02*
X101011905Y-123692914D01*
X101011905Y-123692914D02*
X101154762Y-123883390D01*
X86416666Y-124454819D02*
X86083333Y-123978628D01*
X85845238Y-124454819D02*
X85845238Y-123454819D01*
X85845238Y-123454819D02*
X86226190Y-123454819D01*
X86226190Y-123454819D02*
X86321428Y-123502438D01*
X86321428Y-123502438D02*
X86369047Y-123550057D01*
X86369047Y-123550057D02*
X86416666Y-123645295D01*
X86416666Y-123645295D02*
X86416666Y-123788152D01*
X86416666Y-123788152D02*
X86369047Y-123883390D01*
X86369047Y-123883390D02*
X86321428Y-123931009D01*
X86321428Y-123931009D02*
X86226190Y-123978628D01*
X86226190Y-123978628D02*
X85845238Y-123978628D01*
X86845238Y-123931009D02*
X87178571Y-123931009D01*
X87321428Y-124454819D02*
X86845238Y-124454819D01*
X86845238Y-124454819D02*
X86845238Y-123454819D01*
X86845238Y-123454819D02*
X87321428Y-123454819D01*
X88083333Y-123931009D02*
X87750000Y-123931009D01*
X87750000Y-124454819D02*
X87750000Y-123454819D01*
X87750000Y-123454819D02*
X88226190Y-123454819D01*
X88750000Y-123454819D02*
X88750000Y-123692914D01*
X88511905Y-123597676D02*
X88750000Y-123692914D01*
X88750000Y-123692914D02*
X88988095Y-123597676D01*
X88607143Y-123883390D02*
X88750000Y-123692914D01*
X88750000Y-123692914D02*
X88892857Y-123883390D01*
X89511905Y-123454819D02*
X89511905Y-123692914D01*
X89273810Y-123597676D02*
X89511905Y-123692914D01*
X89511905Y-123692914D02*
X89750000Y-123597676D01*
X89369048Y-123883390D02*
X89511905Y-123692914D01*
X89511905Y-123692914D02*
X89654762Y-123883390D01*
X74916666Y-124454819D02*
X74583333Y-123978628D01*
X74345238Y-124454819D02*
X74345238Y-123454819D01*
X74345238Y-123454819D02*
X74726190Y-123454819D01*
X74726190Y-123454819D02*
X74821428Y-123502438D01*
X74821428Y-123502438D02*
X74869047Y-123550057D01*
X74869047Y-123550057D02*
X74916666Y-123645295D01*
X74916666Y-123645295D02*
X74916666Y-123788152D01*
X74916666Y-123788152D02*
X74869047Y-123883390D01*
X74869047Y-123883390D02*
X74821428Y-123931009D01*
X74821428Y-123931009D02*
X74726190Y-123978628D01*
X74726190Y-123978628D02*
X74345238Y-123978628D01*
X75345238Y-123931009D02*
X75678571Y-123931009D01*
X75821428Y-124454819D02*
X75345238Y-124454819D01*
X75345238Y-124454819D02*
X75345238Y-123454819D01*
X75345238Y-123454819D02*
X75821428Y-123454819D01*
X76583333Y-123931009D02*
X76250000Y-123931009D01*
X76250000Y-124454819D02*
X76250000Y-123454819D01*
X76250000Y-123454819D02*
X76726190Y-123454819D01*
X77250000Y-123454819D02*
X77250000Y-123692914D01*
X77011905Y-123597676D02*
X77250000Y-123692914D01*
X77250000Y-123692914D02*
X77488095Y-123597676D01*
X77107143Y-123883390D02*
X77250000Y-123692914D01*
X77250000Y-123692914D02*
X77392857Y-123883390D01*
X78011905Y-123454819D02*
X78011905Y-123692914D01*
X77773810Y-123597676D02*
X78011905Y-123692914D01*
X78011905Y-123692914D02*
X78250000Y-123597676D01*
X77869048Y-123883390D02*
X78011905Y-123692914D01*
X78011905Y-123692914D02*
X78154762Y-123883390D01*
X63416666Y-124454819D02*
X63083333Y-123978628D01*
X62845238Y-124454819D02*
X62845238Y-123454819D01*
X62845238Y-123454819D02*
X63226190Y-123454819D01*
X63226190Y-123454819D02*
X63321428Y-123502438D01*
X63321428Y-123502438D02*
X63369047Y-123550057D01*
X63369047Y-123550057D02*
X63416666Y-123645295D01*
X63416666Y-123645295D02*
X63416666Y-123788152D01*
X63416666Y-123788152D02*
X63369047Y-123883390D01*
X63369047Y-123883390D02*
X63321428Y-123931009D01*
X63321428Y-123931009D02*
X63226190Y-123978628D01*
X63226190Y-123978628D02*
X62845238Y-123978628D01*
X63845238Y-123931009D02*
X64178571Y-123931009D01*
X64321428Y-124454819D02*
X63845238Y-124454819D01*
X63845238Y-124454819D02*
X63845238Y-123454819D01*
X63845238Y-123454819D02*
X64321428Y-123454819D01*
X65083333Y-123931009D02*
X64750000Y-123931009D01*
X64750000Y-124454819D02*
X64750000Y-123454819D01*
X64750000Y-123454819D02*
X65226190Y-123454819D01*
X65750000Y-123454819D02*
X65750000Y-123692914D01*
X65511905Y-123597676D02*
X65750000Y-123692914D01*
X65750000Y-123692914D02*
X65988095Y-123597676D01*
X65607143Y-123883390D02*
X65750000Y-123692914D01*
X65750000Y-123692914D02*
X65892857Y-123883390D01*
X66511905Y-123454819D02*
X66511905Y-123692914D01*
X66273810Y-123597676D02*
X66511905Y-123692914D01*
X66511905Y-123692914D02*
X66750000Y-123597676D01*
X66369048Y-123883390D02*
X66511905Y-123692914D01*
X66511905Y-123692914D02*
X66654762Y-123883390D01*
X52951666Y-88802319D02*
X52618333Y-88326128D01*
X52380238Y-88802319D02*
X52380238Y-87802319D01*
X52380238Y-87802319D02*
X52761190Y-87802319D01*
X52761190Y-87802319D02*
X52856428Y-87849938D01*
X52856428Y-87849938D02*
X52904047Y-87897557D01*
X52904047Y-87897557D02*
X52951666Y-87992795D01*
X52951666Y-87992795D02*
X52951666Y-88135652D01*
X52951666Y-88135652D02*
X52904047Y-88230890D01*
X52904047Y-88230890D02*
X52856428Y-88278509D01*
X52856428Y-88278509D02*
X52761190Y-88326128D01*
X52761190Y-88326128D02*
X52380238Y-88326128D01*
X53380238Y-88278509D02*
X53713571Y-88278509D01*
X53856428Y-88802319D02*
X53380238Y-88802319D01*
X53380238Y-88802319D02*
X53380238Y-87802319D01*
X53380238Y-87802319D02*
X53856428Y-87802319D01*
X54618333Y-88278509D02*
X54285000Y-88278509D01*
X54285000Y-88802319D02*
X54285000Y-87802319D01*
X54285000Y-87802319D02*
X54761190Y-87802319D01*
X55285000Y-87802319D02*
X55285000Y-88040414D01*
X55046905Y-87945176D02*
X55285000Y-88040414D01*
X55285000Y-88040414D02*
X55523095Y-87945176D01*
X55142143Y-88230890D02*
X55285000Y-88040414D01*
X55285000Y-88040414D02*
X55427857Y-88230890D01*
X56046905Y-87802319D02*
X56046905Y-88040414D01*
X55808810Y-87945176D02*
X56046905Y-88040414D01*
X56046905Y-88040414D02*
X56285000Y-87945176D01*
X55904048Y-88230890D02*
X56046905Y-88040414D01*
X56046905Y-88040414D02*
X56189762Y-88230890D01*
X46666666Y-116304819D02*
X46333333Y-115828628D01*
X46095238Y-116304819D02*
X46095238Y-115304819D01*
X46095238Y-115304819D02*
X46476190Y-115304819D01*
X46476190Y-115304819D02*
X46571428Y-115352438D01*
X46571428Y-115352438D02*
X46619047Y-115400057D01*
X46619047Y-115400057D02*
X46666666Y-115495295D01*
X46666666Y-115495295D02*
X46666666Y-115638152D01*
X46666666Y-115638152D02*
X46619047Y-115733390D01*
X46619047Y-115733390D02*
X46571428Y-115781009D01*
X46571428Y-115781009D02*
X46476190Y-115828628D01*
X46476190Y-115828628D02*
X46095238Y-115828628D01*
X47095238Y-115781009D02*
X47428571Y-115781009D01*
X47571428Y-116304819D02*
X47095238Y-116304819D01*
X47095238Y-116304819D02*
X47095238Y-115304819D01*
X47095238Y-115304819D02*
X47571428Y-115304819D01*
X48333333Y-115781009D02*
X48000000Y-115781009D01*
X48000000Y-116304819D02*
X48000000Y-115304819D01*
X48000000Y-115304819D02*
X48476190Y-115304819D01*
X49000000Y-115304819D02*
X49000000Y-115542914D01*
X48761905Y-115447676D02*
X49000000Y-115542914D01*
X49000000Y-115542914D02*
X49238095Y-115447676D01*
X48857143Y-115733390D02*
X49000000Y-115542914D01*
X49000000Y-115542914D02*
X49142857Y-115733390D01*
X49761905Y-115304819D02*
X49761905Y-115542914D01*
X49523810Y-115447676D02*
X49761905Y-115542914D01*
X49761905Y-115542914D02*
X50000000Y-115447676D01*
X49619048Y-115733390D02*
X49761905Y-115542914D01*
X49761905Y-115542914D02*
X49904762Y-115733390D01*
X75916666Y-103204819D02*
X75583333Y-102728628D01*
X75345238Y-103204819D02*
X75345238Y-102204819D01*
X75345238Y-102204819D02*
X75726190Y-102204819D01*
X75726190Y-102204819D02*
X75821428Y-102252438D01*
X75821428Y-102252438D02*
X75869047Y-102300057D01*
X75869047Y-102300057D02*
X75916666Y-102395295D01*
X75916666Y-102395295D02*
X75916666Y-102538152D01*
X75916666Y-102538152D02*
X75869047Y-102633390D01*
X75869047Y-102633390D02*
X75821428Y-102681009D01*
X75821428Y-102681009D02*
X75726190Y-102728628D01*
X75726190Y-102728628D02*
X75345238Y-102728628D01*
X76345238Y-102681009D02*
X76678571Y-102681009D01*
X76821428Y-103204819D02*
X76345238Y-103204819D01*
X76345238Y-103204819D02*
X76345238Y-102204819D01*
X76345238Y-102204819D02*
X76821428Y-102204819D01*
X77583333Y-102681009D02*
X77250000Y-102681009D01*
X77250000Y-103204819D02*
X77250000Y-102204819D01*
X77250000Y-102204819D02*
X77726190Y-102204819D01*
X78250000Y-102204819D02*
X78250000Y-102442914D01*
X78011905Y-102347676D02*
X78250000Y-102442914D01*
X78250000Y-102442914D02*
X78488095Y-102347676D01*
X78107143Y-102633390D02*
X78250000Y-102442914D01*
X78250000Y-102442914D02*
X78392857Y-102633390D01*
X79011905Y-102204819D02*
X79011905Y-102442914D01*
X78773810Y-102347676D02*
X79011905Y-102442914D01*
X79011905Y-102442914D02*
X79250000Y-102347676D01*
X78869048Y-102633390D02*
X79011905Y-102442914D01*
X79011905Y-102442914D02*
X79154762Y-102633390D01*
%TO.C,REF\u002A\u002A*%
D11*
X73890000Y-94640000D02*
X84110000Y-94640000D01*
X84110000Y-97360000D01*
X73890000Y-97360000D01*
X73890000Y-94640000D01*
X114250000Y-107750000D02*
X114250000Y-106250000D01*
X113000000Y-103750000D02*
X108500000Y-103750000D01*
X108500000Y-110250000D02*
X113000000Y-110250000D01*
X107250000Y-106250000D02*
X107250000Y-107750000D01*
X56750000Y-129000000D02*
X56750000Y-127500000D01*
X55500000Y-125000000D02*
X51000000Y-125000000D01*
X51000000Y-131500000D02*
X55500000Y-131500000D01*
X49750000Y-127500000D02*
X49750000Y-129000000D01*
X128729216Y-108499999D02*
G75*
G02*
X128729216Y-105500000I6400000J1499999D01*
G01*
X141359216Y-107000000D02*
G75*
G02*
X128899216Y-107000000I-6230000J0D01*
G01*
X128899216Y-107000000D02*
G75*
G02*
X141359216Y-107000000I6230000J0D01*
G01*
X118750000Y-127500000D02*
X118750000Y-129000000D01*
X120000000Y-131500000D02*
X124500000Y-131500000D01*
X124500000Y-125000000D02*
X120000000Y-125000000D01*
X125750000Y-129000000D02*
X125750000Y-127500000D01*
X130250000Y-127500000D02*
X130250000Y-129000000D01*
X131500000Y-131500000D02*
X136000000Y-131500000D01*
X136000000Y-125000000D02*
X131500000Y-125000000D01*
X137250000Y-129000000D02*
X137250000Y-127500000D01*
X107250000Y-127500000D02*
X107250000Y-129000000D01*
X108500000Y-131500000D02*
X113000000Y-131500000D01*
X113000000Y-125000000D02*
X108500000Y-125000000D01*
X114250000Y-129000000D02*
X114250000Y-127500000D01*
X95750000Y-127500000D02*
X95750000Y-129000000D01*
X97000000Y-131500000D02*
X101500000Y-131500000D01*
X101500000Y-125000000D02*
X97000000Y-125000000D01*
X102750000Y-129000000D02*
X102750000Y-127500000D01*
X84250000Y-127500000D02*
X84250000Y-129000000D01*
X85500000Y-131500000D02*
X90000000Y-131500000D01*
X90000000Y-125000000D02*
X85500000Y-125000000D01*
X91250000Y-129000000D02*
X91250000Y-127500000D01*
X72750000Y-127500000D02*
X72750000Y-129000000D01*
X74000000Y-131500000D02*
X78500000Y-131500000D01*
X78500000Y-125000000D02*
X74000000Y-125000000D01*
X79750000Y-129000000D02*
X79750000Y-127500000D01*
X61250000Y-127500000D02*
X61250000Y-129000000D01*
X62500000Y-131500000D02*
X67000000Y-131500000D01*
X67000000Y-125000000D02*
X62500000Y-125000000D01*
X68250000Y-129000000D02*
X68250000Y-127500000D01*
D12*
X69000000Y-113350000D02*
X51000000Y-113350000D01*
X69000000Y-113350000D02*
X69000000Y-90650000D01*
X69000000Y-90650000D02*
X64500000Y-90650000D01*
X51000000Y-113350000D02*
X51000000Y-90650000D01*
X64500000Y-89350000D02*
X55500000Y-89350000D01*
X64500000Y-89350000D02*
X64500000Y-90650000D01*
X55500000Y-89350000D02*
X55500000Y-90650000D01*
X55500000Y-90650000D02*
X51000000Y-90650000D01*
D11*
X73750000Y-106250000D02*
X73750000Y-107750000D01*
X75000000Y-110250000D02*
X79500000Y-110250000D01*
X79500000Y-103750000D02*
X75000000Y-103750000D01*
X80750000Y-107750000D02*
X80750000Y-106250000D01*
%TD*%
M02*
